<svg width="25" height="26" viewBox="0 0 25 26" fill="none" xmlns="http://www.w3.org/2000/svg">
<path d="M8.83597 22.0638C8.83597 23.0999 8.84788 24.0909 8.85502 24.7061C8.85688 24.8547 8.90622 24.999 8.99622 25.1192C9.08622 25.2393 9.21243 25.3293 9.35739 25.3768C11.8312 26.17 14.4966 26.207 16.993 25.482L17.3406 25.3814C17.5043 25.3339 17.6479 25.2365 17.7504 25.1037C17.8528 24.9709 17.9086 24.8096 17.9096 24.6437C17.9156 23.7961 17.9299 22.3113 17.9299 20.5618C17.9299 18.9753 17.362 17.96 16.7025 17.4315C20.7489 17.0083 25 15.5698 25 9.07462C25 7.21291 24.2952 5.70966 23.1357 4.52556C23.3179 4.10234 23.9548 2.36782 22.9536 0.041252C22.9536 0.041252 21.4298 -0.424755 17.9525 1.77577C16.4687 1.39375 14.9399 1.20171 13.4049 1.20454C11.8597 1.20454 10.3133 1.39533 8.85859 1.77577C5.38126 -0.405098 3.85748 0.041252 3.85748 0.041252C2.85749 2.36782 3.4932 4.10234 3.67534 4.52556C2.46166 5.74442 1.79178 7.37902 1.81108 9.07462C1.81108 15.5478 6.03959 17.0072 10.086 17.4315C9.56334 17.8548 9.08597 18.5948 8.92764 19.6945C7.88122 20.1385 5.26698 20.8578 3.6301 18.2988C3.28963 17.79 2.26584 16.5423 0.833718 16.5643C-0.690068 16.5851 0.219442 17.3679 0.857527 17.6859C1.62894 18.0872 2.51583 19.5893 2.72059 20.0761C3.08487 21.0278 4.267 22.8467 8.83597 22.065" fill="#1E1E1E"/>
</svg>
