<svg width="25" height="25" viewBox="0 0 25 25" fill="none" xmlns="http://www.w3.org/2000/svg">
<path d="M23.2558 12.5C23.2558 15.3526 22.1226 18.0884 20.1055 20.1055C18.0884 22.1226 15.3526 23.2558 12.5 23.2558V25C19.4035 25 25 19.4035 25 12.5H23.2558ZM12.5 23.2558C9.64738 23.2558 6.9116 22.1226 4.89449 20.1055C2.87738 18.0884 1.74419 15.3526 1.74419 12.5H0C0 19.4035 5.59651 25 12.5 25V23.2558ZM1.74419 12.5C1.74419 9.64738 2.87738 6.9116 4.89449 4.89449C6.9116 2.87738 9.64738 1.74419 12.5 1.74419V0C5.59651 0 0 5.59651 0 12.5H1.74419ZM16.5698 15.1163C14.7965 15.1163 13.0959 14.4119 11.842 13.158C10.5881 11.9041 9.88372 10.2035 9.88372 8.43023H8.13953C8.13953 10.6661 9.02772 12.8103 10.6087 14.3913C12.1897 15.9723 14.3339 16.8605 16.5698 16.8605V15.1163ZM22.2965 11.8826C21.7015 12.8694 20.8616 13.6856 19.8582 14.2522C18.8548 14.8188 17.7221 15.1164 16.5698 15.1163V16.8605C18.0225 16.8609 19.4508 16.4859 20.7159 15.7718C21.9811 15.0577 23.0403 14.0288 23.7907 12.7849L22.2965 11.8826ZM9.88372 8.43023C9.88356 7.27794 10.1812 6.14516 10.7478 5.14178C11.3144 4.13839 12.1306 3.29847 13.1174 2.70349L12.2151 1.21046C10.9713 1.9608 9.94254 3.01977 9.22847 4.28472C8.51441 5.54966 8.13931 6.97766 8.13953 8.43023H9.88372ZM12.5 1.74419C12.4416 1.74306 12.3839 1.73036 12.3304 1.7068C12.2769 1.68325 12.2287 1.64932 12.1884 1.60698C12.1393 1.55774 12.1061 1.49498 12.093 1.42674C12.0884 1.3907 12.0907 1.28605 12.2151 1.21046L13.1174 2.70349C13.7023 2.35 13.8907 1.70233 13.8221 1.19302C13.75 0.663953 13.3337 0 12.5 0V1.74419ZM23.7907 12.7849C23.714 12.9093 23.6093 12.9116 23.5733 12.907C23.505 12.8939 23.4423 12.8607 23.393 12.8116C23.3507 12.7713 23.3167 12.7231 23.2932 12.6696C23.2696 12.6161 23.2569 12.5584 23.2558 12.5H25C25 11.6663 24.336 11.25 23.807 11.1779C23.2977 11.1093 22.65 11.2977 22.2965 11.8826L23.7907 12.7849Z" fill="currentColor"/>
</svg>
